HIERARCHY
ROOT Hips
{
	OFFSET 0.00 0.00 0.00
	CHANNELS 6 Xposition Yposition Zposition Xrotation Yrotation Zrotation
	JOINT RightUpLeg
	{
		OFFSET -4.47808 0.00000 0.00000
		CHANNELS 3 Xrotation Yrotation Zrotation
		JOINT RightLeg
		{
			OFFSET 0.00000 -16.40577 0.00000
			CHANNELS 3 Xrotation Yrotation Zrotation
			JOINT RightFoot
			{
				OFFSET 0.00000 -14.64414 0.00000
				CHANNELS 3 Xrotation Yrotation Zrotation
				JOINT RightToeBase
				{
					OFFSET 0.00000 -1.50274 5.60831
					CHANNELS 3 Xrotation Yrotation Zrotation
					End Site
					{
						OFFSET 0.00000 0.00000 2.95275
					}
				}
			}
		}
	}
	JOINT LeftUpLeg
	{
		OFFSET 4.47808 0.00000 0.00000
		CHANNELS 3 Xrotation Yrotation Zrotation
		JOINT LeftLeg
		{
			OFFSET 0.00000 -16.40577 0.00000
			CHANNELS 3 Xrotation Yrotation Zrotation
			JOINT LeftFoot
			{
				OFFSET 0.00000 -14.64414 0.00000
				CHANNELS 3 Xrotation Yrotation Zrotation
				JOINT LeftToeBase
				{
					OFFSET 0.00000 -1.50274 5.60831
					CHANNELS 3 Xrotation Yrotation Zrotation
					End Site
					{
						OFFSET 0.00000 0.00000 2.95275
					}
				}
			}
		}
	}
	JOINT Spine
	{
		OFFSET 0.00000 6.06821 0.00000
		CHANNELS 3 Xrotation Yrotation Zrotation
		JOINT RightShoulder
		{
			OFFSET 0.00000 10.01392 0.00000
			CHANNELS 3 Xrotation Yrotation Zrotation
			JOINT RightArm
			{
				OFFSET -7.19022 0.00000 0.00000
				CHANNELS 3 Xrotation Yrotation Zrotation
				JOINT RightForeArm
				{
					OFFSET -10.17747 0.00000 0.00000
					CHANNELS 3 Yrotation Zrotation Xrotation
					JOINT RightHand
					{
						OFFSET -8.39211 0.00000 0.00000
						CHANNELS 3 Xrotation Yrotation Zrotation
						End Site
						{
							OFFSET -3.93700 0.00000 0.00000
						}
						JOINT RightHandThumb1
						{
							OFFSET 0.00000 0.00000 0.00000
							CHANNELS 3 Xrotation Zrotation Yrotation
							End Site
							{
								OFFSET 0.00000 0.00000 3.93700
							}
						}
					}
				}
			}
		}
		JOINT LeftShoulder
		{
			OFFSET 0.00000 10.01392 0.00000
			CHANNELS 3 Xrotation Yrotation Zrotation
			JOINT LeftArm
			{
				OFFSET 7.19022 0.00000 0.00000
				CHANNELS 3 Xrotation Yrotation Zrotation
				JOINT LeftForeArm
				{
					OFFSET 10.17747 0.00000 0.00000
					CHANNELS 3 Yrotation Zrotation Xrotation
					JOINT LeftHand
					{
						OFFSET 8.39211 0.00000 0.00000
						CHANNELS 3 Xrotation Yrotation Zrotation
						End Site
						{
							OFFSET 3.93700 0.00000 0.00000
						}
						JOINT LeftHandThumb1
						{
							OFFSET 0.00000 0.00000 0.00000
							CHANNELS 3 Xrotation Zrotation Yrotation
							End Site
							{
								OFFSET 0.00000 0.00000 3.93700
							}
						}
					}
				}
			}
		}
		JOINT Head
		{
			OFFSET 0.00000 15.77748 0.00000
			CHANNELS 3 Xrotation Yrotation Zrotation
			End Site
			{
				OFFSET 0.00000 4.52755 0.00000
			}
		}
	}
}
MOTION
Frames: 22
Frame Time: 0.008333
 4.1647 33.4515 -3.7267 10.2664 -33.3812 -4.3637 -88.1274 -7.2241 -34.1766 102.9768 0.0000 0.0000 -1.6038 -13.2067 -5.4931 -6.4313 0.0000 0.0000 -13.2907 22.0072 -1.5439 13.6863 -0.0000 0.0000 -18.7373 16.7096 6.6776 9.5375 -0.0000 0.0000 -6.2942 1.8092 5.4986 19.3556 -24.2368 -9.6081 -13.5834 11.6932 77.7502 43.8330 0.0000 16.5805 0.2529 7.6988 -1.8868 32.8623 0.0000 -24.3270 -3.5567 25.9731 22.1107 -19.8556 38.3549 -62.5897 -125.2729 -0.0000 13.6701 -1.6332 11.1480 8.3889 33.1476 -0.0000 26.2537 12.4521 -10.9648 -0.6250
 4.1577 33.4554 -3.7309 10.2848 -33.2902 -4.4172 -88.1087 -7.3035 -34.1325 102.9982 0.0000 0.0000 -1.6020 -13.2404 -5.4714 -6.3759 -0.0000 0.0000 -13.3294 21.9148 -1.4892 13.6660 -0.0000 0.0000 -18.7172 16.6825 6.7689 9.5191 0.0000 0.0000 -6.3007 1.7731 5.5336 19.3156 -24.2284 -9.5958 -13.5970 11.6454 77.7297 43.8329 0.0000 16.6288 0.2501 7.6789 -1.8713 32.8623 0.0000 -24.3270 -3.5498 25.9854 22.1116 -19.9235 38.3640 -62.5086 -125.2600 -0.0000 13.4985 -1.6355 11.1033 8.4333 33.1476 -0.0000 26.2537 12.4641 -11.0047 -0.5624
 4.1523 33.4580 -3.7312 10.2882 -33.1984 -4.4543 -88.0874 -7.3614 -34.1088 103.0215 -0.0000 0.0000 -1.6239 -13.2994 -5.4683 -6.3546 -0.0000 -0.0000 -13.3292 21.8084 -1.4745 13.6288 -0.0000 0.0000 -18.6906 16.6840 6.8497 9.3866 -0.0000 0.0000 -6.3007 1.7486 5.5439 19.2939 -24.2296 -9.5877 -13.6335 11.6077 77.7239 43.8041 0.0000 16.6123 0.2520 7.7582 -1.8662 32.8623 0.0000 -24.3270 -3.5315 25.9930 22.1149 -19.9610 38.3838 -62.4466 -125.2693 -0.0000 13.2887 -1.6289 11.0506 8.4390 33.1476 -0.0000 26.2537 12.4794 -11.0698 -0.4903
 4.1452 33.4623 -3.7335 10.3096 -33.1208 -4.5076 -88.0787 -7.4638 -34.0681 103.0271 -0.0000 -0.0000 -1.6533 -13.4012 -5.3446 -6.4408 -0.0000 0.0000 -13.3674 21.7660 -1.4106 13.6158 0.0000 0.0000 -18.6786 16.6337 6.8939 9.3983 -0.0000 0.0000 -6.3246 1.7337 5.5806 19.2725 -24.2209 -9.5812 -13.6502 11.5923 77.7193 43.8219 0.0000 16.5508 0.2681 7.7003 -1.9997 32.8623 0.0000 -24.3270 -3.5348 25.9777 22.1230 -19.9625 38.4320 -62.3834 -125.3004 -0.0000 13.2365 -1.6280 11.0583 8.4288 33.1476 -0.0000 26.2537 12.5099 -11.1139 -0.4118
 4.1391 33.4665 -3.7344 10.3205 -33.0529 -4.5577 -88.0576 -7.5544 -34.0290 103.0292 0.0000 0.0000 -1.7472 -13.4587 -5.4062 -6.2957 0.0000 0.0000 -13.3913 21.7271 -1.3571 13.6021 0.0000 -0.0000 -18.6534 16.5901 6.9044 9.3070 0.0000 -0.0000 -6.3445 1.7312 5.6068 19.2773 -24.2048 -9.5592 -13.6784 11.5812 77.6957 43.8453 0.0000 16.5892 0.2772 7.6966 -2.0691 32.8623 0.0000 -24.3270 -3.4754 26.0081 22.0986 -20.0378 38.4474 -62.3436 -125.3269 -0.0000 13.2037 -1.6257 11.0220 8.4436 33.1476 -0.0000 26.2537 12.5465 -11.1636 -0.3302
 4.1334 33.4703 -3.7349 10.3332 -32.9826 -4.5922 -88.0389 -7.6257 -33.9941 103.0360 0.0000 0.0000 -1.7964 -13.5145 -5.3382 -6.3252 0.0000 -0.0000 -13.4073 21.6931 -1.3213 13.5790 -0.0000 -0.0000 -18.6358 16.5467 6.9532 9.2665 -0.0000 0.0000 -6.3623 1.7312 5.6116 19.2119 -24.1713 -9.5733 -13.6391 11.5549 77.6863 43.8896 0.0000 16.5345 0.2754 7.6867 -2.0577 32.8623 0.0000 -24.3270 -3.4584 26.0270 22.0925 -20.0761 38.4485 -62.3013 -125.3701 -0.0000 13.1213 -1.6448 11.0280 8.5372 33.1476 -0.0000 26.2537 12.5688 -11.2094 -0.2381
 4.1274 33.4737 -3.7354 10.3392 -32.9161 -4.6318 -88.0110 -7.7074 -33.9548 103.0284 -0.0000 0.0000 -1.8431 -13.5705 -5.3146 -6.3431 -0.0000 -0.0000 -13.4246 21.6530 -1.2799 13.5725 0.0000 0.0000 -18.6195 16.5109 6.9668 9.2300 -0.0000 -0.0000 -6.3710 1.7473 5.6183 19.1519 -24.1490 -9.5761 -13.6372 11.4772 77.7043 43.9209 0.0000 16.5856 0.2865 7.7274 -2.1301 32.8623 0.0000 -24.3270 -3.4402 26.0410 22.0785 -20.1314 38.4392 -62.2359 -125.4106 -0.0000 13.0138 -1.6705 11.0856 8.6248 33.1476 -0.0000 26.2537 12.5834 -11.2507 -0.1448
 4.1229 33.4766 -3.7363 10.3447 -32.8609 -4.6668 -87.9863 -7.7792 -33.9108 103.0153 -0.0000 -0.0000 -1.8637 -13.5878 -5.3141 -6.2252 -0.0000 0.0000 -13.4440 21.6336 -1.2423 13.5706 0.0000 -0.0000 -18.6017 16.4807 6.9795 9.1971 -0.0000 0.0000 -6.3740 1.7883 5.6260 19.0918 -24.1551 -9.5836 -13.6308 11.4976 77.6999 43.9562 0.0000 16.5332 0.2998 7.6619 -2.2478 32.8623 0.0000 -24.3270 -3.4516 26.0337 22.0665 -20.1747 38.4589 -62.1573 -125.4458 -0.0000 12.9303 -1.6538 11.0696 8.5517 33.1476 -0.0000 26.2537 12.5647 -11.3411 -0.0696
 4.1301 33.4756 -3.7354 10.3815 -32.8375 -4.5994 -88.0197 -7.7511 -33.8757 102.9953 -0.0000 0.0000 -1.8219 -13.5280 -5.3952 -6.3457 -0.0000 0.0000 -13.4443 21.5970 -1.3206 13.5402 -0.0000 -0.0000 -18.5561 16.5358 6.9585 9.1822 0.0000 0.0000 -6.4079 1.8530 5.5569 19.0415 -24.1481 -9.6179 -13.6477 11.4906 77.7168 44.0171 0.0000 16.5061 0.2882 7.7310 -2.1411 32.8623 0.0000 -24.3270 -3.4528 26.0363 22.0820 -20.1963 38.5116 -62.1391 -125.4889 -0.0000 12.8007 -1.6243 11.0335 8.4282 33.1476 -0.0000 26.2537 12.5656 -11.3907 -0.0017
 4.1254 33.4793 -3.7378 10.3989 -32.7817 -4.6265 -87.9988 -7.8260 -33.8403 102.9775 0.0000 0.0000 -1.7962 -13.4896 -5.3843 -6.3697 -0.0000 -0.0000 -13.4900 21.5442 -1.2752 13.5633 -0.0000 0.0000 -18.5386 16.5275 6.9346 9.0525 0.0000 -0.0000 -6.4289 1.8717 5.5544 18.9954 -24.1297 -9.6195 -13.6675 11.5376 77.7185 44.0452 0.0000 16.5212 0.3094 7.6809 -2.3134 32.8623 0.0000 -24.3270 -3.4574 26.0315 22.0893 -20.2168 38.5594 -62.1158 -125.5357 -0.0000 12.7913 -1.6138 10.9843 8.4110 33.1476 -0.0000 26.2537 12.5735 -11.4401 0.0687
 4.1222 33.4812 -3.7361 10.3948 -32.7127 -4.6459 -87.9610 -7.8749 -33.8438 102.9584 -0.0000 0.0000 -1.7847 -13.4522 -5.3211 -6.3593 -0.0000 -0.0000 -13.4934 21.4951 -1.2599 13.5738 0.0000 -0.0000 -18.5232 16.5198 6.8652 9.0242 0.0000 -0.0000 -6.4379 1.8723 5.5400 18.9716 -24.1231 -9.6478 -13.7453 11.5134 77.7657 44.0754 0.0000 16.4928 0.2924 7.6598 -2.1925 32.8623 0.0000 -24.3270 -3.4464 26.0454 22.0967 -20.2868 38.6229 -62.1067 -125.5605 -0.0000 12.8122 -1.6294 11.1459 8.3714 33.1476 -0.0000 26.2537 12.5881 -11.4660 0.1162
 4.1189 33.4835 -3.7353 10.3901 -32.6500 -4.6668 -87.9172 -7.9337 -33.8269 102.9317 -0.0000 -0.0000 -1.7997 -13.4247 -5.3187 -6.3219 0.0000 -0.0000 -13.4971 21.4942 -1.2369 13.5796 0.0000 0.0000 -18.4772 16.4826 6.7309 8.8281 0.0000 0.0000 -6.4415 1.8782 5.5359 18.9480 -24.0936 -9.6593 -13.7917 11.4519 77.7827 44.1713 0.0000 16.3925 0.2553 7.6944 -1.9062 32.8623 0.0000 -24.3270 -3.4556 26.0278 22.0856 -20.3470 38.7064 -62.0463 -125.5742 -0.0000 12.7990 -1.6071 10.9723 8.3853 33.1476 -0.0000 26.2537 12.5825 -11.5002 0.1309
 4.1156 33.4859 -3.7346 10.3810 -32.5766 -4.6912 -87.8656 -7.9931 -33.8244 102.9126 0.0000 0.0000 -1.8108 -13.3873 -5.3185 -6.3401 -0.0000 -0.0000 -13.5036 21.4665 -1.2117 13.6003 0.0000 -0.0000 -18.4661 16.4528 6.6343 8.8182 -0.0000 -0.0000 -6.4400 1.8724 5.5220 18.8872 -24.0689 -9.6698 -13.8207 11.5100 77.7973 44.1723 0.0000 16.5170 0.2910 7.7421 -2.1594 32.8623 0.0000 -24.3270 -3.4583 26.0206 22.0914 -20.4013 38.7874 -62.0181 -125.5751 -0.0000 12.8277 -1.6017 10.9556 8.3699 33.1476 -0.0000 26.2537 12.5771 -11.5111 0.1624
 4.1113 33.4877 -3.7333 10.3785 -32.4904 -4.7068 -87.8172 -8.0523 -33.8430 102.8985 0.0000 0.0000 -1.8331 -13.3886 -5.2837 -6.2938 0.0000 0.0000 -13.5014 21.4474 -1.1983 13.6013 -0.0000 -0.0000 -18.4448 16.4120 6.5549 8.7951 -0.0000 -0.0000 -6.4519 1.8635 5.4921 18.7986 -24.0452 -9.6916 -13.8194 11.5606 77.8016 44.2233 0.0000 16.4563 0.2801 7.6729 -2.0969 32.8623 0.0000 -24.3270 -3.4787 25.9956 22.1179 -20.4434 38.8503 -61.9928 -125.5667 -0.0000 12.9076 -1.6165 10.9940 8.4178 33.1476 -0.0000 26.2537 12.5890 -11.5417 0.2102
 4.1074 33.4898 -3.7315 10.3763 -32.4027 -4.7223 -87.7638 -8.1126 -33.8697 102.8863 -0.0000 -0.0000 -1.8494 -13.3927 -5.2464 -6.3182 0.0000 0.0000 -13.4959 21.4028 -1.1924 13.5959 0.0000 0.0000 -18.4365 16.4263 6.4423 8.8500 -0.0000 -0.0000 -6.4608 1.8482 5.4713 18.7586 -24.0166 -9.6827 -13.8500 11.5572 77.8165 44.3016 0.0000 16.5023 0.2921 7.6372 -2.1972 32.8623 0.0000 -24.3270 -3.5112 25.9721 22.1387 -20.4835 38.9050 -61.9613 -125.5195 -0.0000 12.9555 -1.6407 11.0535 8.4970 33.1476 -0.0000 26.2537 12.5795 -11.5499 0.2329
 4.1041 33.4918 -3.7306 10.3635 -32.3070 -4.7582 -87.6916 -8.1934 -33.9020 102.8653 -0.0000 0.0000 -1.8470 -13.3793 -5.2409 -6.3034 0.0000 -0.0000 -13.4943 21.3764 -1.1673 13.6025 -0.0000 -0.0000 -18.4349 16.4119 6.3362 8.8516 0.0000 0.0000 -6.4460 1.8435 5.4776 18.7117 -23.9998 -9.6841 -13.8629 11.5752 77.8192 44.4270 0.0000 16.5531 0.2870 7.5278 -2.1898 32.8623 0.0000 -24.3270 -3.5436 25.9342 22.1371 -20.5601 38.9442 -61.9099 -125.4636 -0.0000 12.9718 -1.6485 11.0750 8.5205 33.1476 -0.0000 26.2537 12.5367 -11.5886 0.2384
 4.0987 33.4948 -3.7279 10.3484 -32.2429 -4.7906 -87.5962 -8.2614 -33.8892 102.8458 0.0000 0.0000 -1.8300 -13.3618 -5.1095 -6.4760 0.0000 0.0000 -13.4809 21.3893 -1.1332 13.5985 0.0000 0.0000 -18.4548 16.3761 6.2584 9.0083 0.0000 -0.0000 -6.4490 1.8634 5.4588 18.6951 -23.9518 -9.6439 -13.9108 11.4308 77.8487 44.5269 0.0000 16.6564 0.2763 7.4939 -2.1175 32.8623 0.0000 -24.3270 -3.6143 25.9061 22.1952 -20.5837 38.9552 -61.9105 -125.3992 -0.0000 12.9788 -1.6546 11.0930 8.5385 33.1476 -0.0000 26.2537 12.5297 -11.6710 0.2562
 4.1144 33.4904 -3.7290 10.4231 -32.2435 -4.6525 -87.6598 -8.2112 -33.8884 102.8108 0.0000 0.0000 -1.8192 -13.3298 -5.2498 -6.2618 0.0000 0.0000 -13.5097 21.3974 -1.2657 13.5867 0.0000 0.0000 -18.4345 16.4858 6.1440 9.0882 0.0000 0.0000 -6.5074 1.9581 5.3795 18.6080 -23.9176 -9.7077 -14.0197 10.8857 78.0950 44.6735 0.0000 17.3813 0.2462 7.4978 -1.8859 32.8623 0.0000 -24.3270 -3.6590 25.8456 22.2023 -20.6634 39.0183 -61.8666 -125.2873 -0.0000 13.0233 -1.6597 11.0837 8.5712 33.1476 -0.0000 26.2537 12.4687 -11.6432 0.2205
 4.1140 33.4914 -3.7286 10.4324 -32.1887 -4.6384 -87.6095 -8.2600 -33.8946 102.8059 0.0000 0.0000 -1.8391 -13.3165 -5.2737 -6.1556 0.0000 0.0000 -13.5215 21.4254 -1.2709 13.6060 -0.0000 0.0000 -18.4260 16.4844 5.9932 9.1351 -0.0000 -0.0000 -6.5278 1.9806 5.3373 18.5785 -23.8873 -9.7279 -14.1176 10.7751 78.1724 44.6818 0.0000 17.5176 0.2252 7.6116 -1.6995 32.8623 0.0000 -24.3270 -3.6991 25.8209 22.2378 -20.7229 38.9802 -61.8095 -125.1783 -0.0000 13.0468 -1.6798 11.1187 8.6467 33.1476 -0.0000 26.2537 12.4620 -11.7032 0.2218
 4.1111 33.4917 -3.7290 10.4248 -32.0908 -4.6720 -87.5235 -8.3332 -33.9267 102.8181 -0.0000 -0.0000 -1.8653 -13.3311 -5.2238 -6.1598 -0.0000 -0.0000 -13.5512 21.4093 -1.2370 13.6621 -0.0000 0.0000 -18.4515 16.4728 5.8725 9.1863 0.0000 -0.0000 -6.5302 1.9613 5.3671 18.5421 -23.8771 -9.7970 -14.2154 10.7161 78.2825 44.7080 0.0000 17.6852 0.2146 7.6049 -1.6215 32.8623 0.0000 -24.3270 -3.6931 25.7835 22.2115 -20.8613 38.9761 -61.7464 -125.0387 -0.0000 13.0630 -1.6586 11.0715 8.5747 33.1476 -0.0000 26.2537 12.4445 -11.6861 0.1733
 4.1058 33.4927 -3.7293 10.4131 -32.0016 -4.7022 -87.4232 -8.3941 -33.9362 102.8429 -0.0000 0.0000 -1.8887 -13.3436 -5.1877 -6.2448 -0.0000 0.0000 -13.5746 21.3921 -1.2019 13.7137 0.0000 0.0000 -18.4799 16.4479 5.7797 9.2434 -0.0000 0.0000 -6.5269 1.9435 5.3424 18.5229 -23.8390 -9.7696 -14.2341 10.8196 78.2389 44.8188 0.0000 17.5496 0.2121 7.5778 -1.6080 32.8623 0.0000 -24.3270 -3.7822 25.7301 22.2978 -20.8749 38.9667 -61.7625 -124.9240 -0.0000 13.1082 -1.6474 11.0406 8.5407 33.1476 -0.0000 26.2537 12.4250 -11.7241 0.1984
 4.1030 33.4924 -3.7286 10.4219 -31.9105 -4.7289 -87.3385 -8.4538 -33.9527 102.8767 0.0000 -0.0000 -1.9206 -13.3369 -5.1086 -6.1647 -0.0000 0.0000 -13.6216 21.3262 -1.1708 13.7761 -0.0000 0.0000 -18.5053 16.4562 5.7349 9.2084 -0.0000 0.0000 -6.5446 1.9094 5.3776 18.4743 -23.8187 -9.8176 -14.2465 10.8953 78.2605 44.9339 0.0000 17.5194 0.2215 7.5590 -1.6834 32.8623 0.0000 -24.3270 -3.7924 25.6923 22.2873 -20.9778 38.9471 -61.6991 -124.7810 -0.0000 13.1221 -1.6742 11.1253 8.6135 33.1476 -0.0000 26.2537 12.3901 -11.6955 0.1455
